# xmcd CD database file
#
# Track frame offsets:
#	187
#	18175
#	37217
#	58627
#	78710
#	100352
#	118975
#	137037
#	154460
#	173107
#
# Disc length: 2590 seconds
#
# Revision: 0
# Processed by: cddbd v1.5.1PL0 Copyright (c) Steve Scherf et al.
# Submitted via: CDex 1.51
#
DISCID=8d0a1c0a
DTITLE=神山純一 - CRYSTAL DEW ?
DYEAR=1989
DGENRE=Instrumental
TTITLE0=ガラスのレザンジュ
TTITLE1=光のパトゥ・ドゥ
TTITLE2=幻想のプレリュード
TTITLE3=風のロンド
TTITLE4=ジェラールの森の物語
TTITLE5=月の光
TTITLE6=カフェ・カプチーノ
TTITLE7=ソレイユ
TTITLE8=夜の想い
TTITLE9=夕暮れの情景
EXTD=YEAR: 1989
EXTT0=
EXTT1=
EXTT2=
EXTT3=
EXTT4=
EXTT5=
EXTT6=
EXTT7=
EXTT8=
EXTT9=
PLAYORDER=
